<svg xmlns="http://www.w3.org/2000/svg" width="499.56" height="245.98" viewBox="0 0 499.56 245.98"><path d="M-6.36,104.56c35.14,0,55.17-17.57,55.17-45C48.81,35,32,17.07-4.25,17.07H-8.71v87.49Z" fill="none"/><path d="M4.46,226c40.41,0,59.74-17.22,59.74-48.5,0-29.86-20.38-50.25-62.2-50.25H0V226Z" fill="none"/><path d="M36.79,116.66c26-7.73,44.27-28.11,44.27-55.87C81.06,21.79,51.55,0,5.51,0H0V19.68H4.46c36.19,0,53.06,17.92,53.06,42.52,0,27.41-20,45-55.17,45H0v20H2c41.82,0,62.2,20.39,62.2,50.25,0,31.28-19.33,48.5-59.74,48.5H0v20H1.65c48.84,0,86.09-19.68,86.09-67.47C87.74,147.59,68.06,124.75,36.79,116.66Z"/><polygon points="126.03 20.03 198.42 20.03 198.42 225.59 126.03 225.59 126.03 245.98 294.35 245.98 294.35 225.59 221.62 225.59 221.62 20.03 294.35 20.03 294.35 0 126.03 0 126.03 20.03"/><polygon points="476.37 0 476.37 182.72 476.37 218.92 378.33 0 342.84 0 342.84 245.98 365.68 245.98 365.68 66.77 365.68 23.89 465.12 245.98 499.56 245.98 499.56 0 476.37 0"/></svg>