<svg xmlns="http://www.w3.org/2000/svg" width="494.4" height="245.98" viewBox="0 0 494.4 245.98"><text transform="translate(2.26 265.83)" font-size="351.39" font-family="ABCDiatypeMonoTrial-Light, ABC Diatype Mono Trial" font-weight="300"> </text><polygon points="0 245.98 23.54 245.98 23.54 128.26 150.04 128.26 150.04 108.23 23.54 108.23 23.54 19.68 156.02 19.68 156.02 0 0 0 0 245.98"/><polygon points="229.81 130.72 355.25 130.72 355.25 110.69 229.81 110.69 229.81 19.68 361.23 19.68 361.23 0 206.61 0 206.61 245.98 365.44 245.98 365.44 225.95 229.81 225.95 229.81 130.72"/><path d="M484.56,188.35,427.63,0H402.68l76.26,246H494.4V220C490.88,209.43,487.72,198.54,484.56,188.35Z"/></svg>