<?xml version="1.0" encoding="UTF-8"?>
<svg xmlns="http://www.w3.org/2000/svg" xmlns:xlink="http://www.w3.org/1999/xlink" width="200px" height="200px" viewBox="0 0 200 200" version="1.1">
<g id="surface1">
<path style=" stroke:none;fill-rule:nonzero;fill:rgb(100%,100%,100%);fill-opacity:1;" d="M 1.042969 44.792969 L 198.957031 44.792969 L 198.957031 155.207031 L 1.042969 155.207031 Z M 1.042969 44.792969 "/>
<path style=" stroke:none;fill-rule:nonzero;fill:rgb(0%,0%,0%);fill-opacity:1;" d="M 0 156.25 L 200 156.25 L 200 43.75 L 0 43.75 Z M 2.082031 45.832031 L 197.917969 45.832031 L 197.917969 154.167969 L 2.082031 154.167969 Z M 2.082031 45.832031 "/>
<path style=" stroke:none;fill-rule:nonzero;fill:rgb(0%,0%,0%);fill-opacity:1;" d="M 15.910156 143.980469 L 15.910156 102.8125 L 42.023438 102.8125 L 42.023438 106.105469 L 19.851562 106.105469 L 19.851562 120.925781 L 41.023438 120.925781 L 41.023438 124.277344 L 19.851562 124.277344 L 19.851562 143.980469 Z M 15.910156 143.980469 "/>
<path style=" stroke:none;fill-rule:nonzero;fill:rgb(0%,0%,0%);fill-opacity:1;" d="M 51.445312 143.980469 L 51.445312 102.8125 L 77.324219 102.8125 L 77.324219 106.105469 L 55.328125 106.105469 L 55.328125 121.335938 L 76.324219 121.335938 L 76.324219 124.691406 L 55.328125 124.691406 L 55.328125 140.628906 L 78.027344 140.628906 L 78.027344 143.980469 Z M 51.445312 143.980469 "/>
<path style=" stroke:none;fill-rule:nonzero;fill:rgb(0%,0%,0%);fill-opacity:1;" d="M 98.351562 143.980469 L 85.589844 102.8125 L 89.765625 102.8125 L 99.292969 134.335938 C 99.820312 136.039062 100.351562 137.863281 100.9375 139.628906 C 101.410156 137.863281 101.9375 136.160156 102.527344 134.277344 L 112.054688 102.8125 L 116.113281 102.8125 L 103.113281 143.980469 Z M 98.351562 143.980469 "/>
<path style=" stroke:none;fill-rule:nonzero;fill:rgb(0%,0%,0%);fill-opacity:1;" d="M 123.820312 143.980469 L 123.820312 102.8125 L 149.699219 102.8125 L 149.699219 106.105469 L 127.703125 106.105469 L 127.703125 121.335938 L 148.699219 121.335938 L 148.699219 124.691406 L 127.703125 124.691406 L 127.703125 140.628906 L 150.40625 140.628906 L 150.40625 143.980469 Z M 123.820312 143.980469 "/>
<path style=" stroke:none;fill-rule:nonzero;fill:rgb(0%,0%,0%);fill-opacity:1;" d="M 161.84375 121.984375 L 172.3125 121.984375 C 177.960938 121.984375 181.898438 119.101562 181.898438 113.925781 C 181.898438 108.867188 178.429688 106.105469 172.371094 106.105469 L 161.84375 106.105469 Z M 157.964844 143.980469 L 157.964844 102.8125 L 173.078125 102.8125 C 180.902344 102.8125 185.898438 106.8125 185.898438 113.574219 C 185.898438 118.984375 181.898438 122.453125 177.84375 123.574219 C 181.898438 124.277344 184.957031 127.21875 184.957031 133.160156 L 184.957031 143.980469 L 181.078125 143.980469 L 181.078125 133.804688 C 181.078125 127.042969 177.722656 125.335938 171.960938 125.335938 L 161.84375 125.335938 L 161.84375 143.980469 Z M 157.964844 143.980469 "/>
<path style=" stroke:none;fill-rule:nonzero;fill:rgb(0%,0%,0%);fill-opacity:1;" d="M 13.546875 74.917969 C 13.546875 62.390625 19.957031 53.6875 29.664062 53.6875 C 37.71875 53.6875 42.484375 59.507812 43.128906 67.390625 L 38.957031 67.390625 C 38.132812 61.273438 34.839844 57.039062 29.484375 57.039062 C 22.074219 57.039062 17.664062 64.273438 17.664062 74.917969 C 17.664062 85.738281 22.074219 93.265625 29.308594 93.265625 C 35.074219 93.265625 38.367188 89.386719 39.308594 82.917969 L 43.367188 82.917969 C 42.367188 91.269531 37.542969 96.5625 29.367188 96.5625 C 19.605469 96.5625 13.546875 87.914062 13.546875 74.917969 "/>
<path style=" stroke:none;fill-rule:nonzero;fill:rgb(0%,0%,0%);fill-opacity:1;" d="M 56.820312 79.5625 L 70.640625 79.5625 L 65.289062 63.332031 C 64.703125 61.683594 64.230469 60.097656 63.703125 58.449219 C 63.230469 60.039062 62.703125 61.683594 62.171875 63.332031 Z M 75.992188 95.738281 L 71.757812 82.859375 L 55.761719 82.859375 L 51.527344 95.738281 L 47.644531 95.738281 L 61.410156 54.570312 L 66.113281 54.570312 L 80.109375 95.738281 Z M 75.992188 95.738281 "/>
<path style=" stroke:none;fill-rule:nonzero;fill:rgb(0%,0%,0%);fill-opacity:1;" d="M 91.140625 92.386719 L 100.671875 92.386719 C 107.433594 92.386719 110.667969 89.503906 110.667969 84.269531 C 110.667969 79.269531 107.257812 75.859375 100.257812 75.859375 L 91.140625 75.859375 Z M 91.140625 72.507812 L 100.316406 72.507812 C 106.199219 72.507812 109.550781 69.566406 109.550781 64.976562 C 109.550781 60.863281 106.726562 57.863281 100.671875 57.863281 L 91.140625 57.863281 Z M 87.203125 95.738281 L 87.203125 54.570312 L 100.847656 54.570312 C 108.550781 54.570312 113.492188 58.214844 113.492188 64.742188 C 113.492188 69.390625 110.433594 72.800781 106.082031 74.09375 C 111.316406 75.445312 114.609375 79.269531 114.609375 84.445312 C 114.609375 92.445312 108.375 95.738281 100.199219 95.738281 Z M 87.203125 95.738281 "/>
<path style=" stroke:none;fill-rule:nonzero;fill:rgb(0%,0%,0%);fill-opacity:1;" d="M 149.191406 57.921875 L 137.015625 57.921875 L 137.015625 92.328125 L 149.191406 92.328125 L 149.191406 95.738281 L 121.019531 95.738281 L 121.019531 92.328125 L 133.132812 92.328125 L 133.132812 57.921875 L 121.019531 57.921875 L 121.019531 54.570312 L 149.191406 54.570312 Z M 149.191406 57.921875 "/>
<path style=" stroke:none;fill-rule:nonzero;fill:rgb(0%,0%,0%);fill-opacity:1;" d="M 157.304688 95.738281 L 157.304688 54.566406 L 163.246094 54.566406 L 179.652344 91.207031 L 179.652344 54.566406 L 183.535156 54.566406 L 183.535156 95.738281 L 177.773438 95.738281 L 161.128906 58.566406 L 161.128906 95.738281 Z M 157.304688 95.738281 "/>
</g>
</svg>
