<svg xmlns="http://www.w3.org/2000/svg" width="509.97" height="256.17" viewBox="0 0 509.97 256.17"><text transform="translate(2.26 541.99)" font-size="351.39" font-family="ABCDiatypeMonoTrial-Light, ABC Diatype Mono Trial" font-weight="300"> </text><rect x="457.5" y="24.95" width="52.47" height="87.5" fill="none"/><path d="M297.62,28.46c-2.81,9.49-6,19.33-9.13,29.17l-32,97h82.58l-32-97C303.6,47.79,300.79,38.3,297.62,28.46Z" fill="none"/><rect x="457.5" y="132.48" width="52.47" height="98.74" fill="none"/><path d="M94.17,236.49c-43.22,0-69.57-45-69.57-109.64C24.6,63.25,51,20,95.23,20c32,0,51.65,25.3,56.57,61.85h24.95C172.89,34.79,144.42,0,96.28,0,38.3,0,0,52,0,126.85c0,77.66,36.19,129.32,94.52,129.32,48.85,0,77.66-31.63,83.64-81.53H153.91C148.29,213.3,128.61,236.49,94.17,236.49Z"/><path d="M283.92,5.27l-82.23,246h23.2l25.3-77h95.58l25.3,77h24.59L312,5.27ZM256.51,154.61l32-97c3.16-9.84,6.32-19.68,9.13-29.17,3.17,9.84,6,19.33,9.49,29.17l32,97Z"/><polygon points="457.5 231.22 457.5 132.48 509.97 132.48 509.97 112.45 457.5 112.45 457.5 24.95 509.97 24.95 509.97 5.27 433.96 5.27 433.96 251.25 509.97 251.25 509.97 231.22 457.5 231.22"/></svg>