<svg xmlns="http://www.w3.org/2000/svg" width="1009.53" height="256.17" viewBox="0 0 1009.53 256.17"><path d="M0,126.85C0,52,38.3,0,96.28,0c48.14,0,76.61,34.79,80.47,81.88H151.8C146.88,45.33,127.2,20,95.23,20,51,20,24.6,63.25,24.6,126.85c0,64.66,26.35,109.64,69.57,109.64,34.44,0,54.12-23.19,59.74-61.85h24.25c-6,49.9-34.79,81.53-83.64,81.53C36.19,256.17,0,204.51,0,126.85Z"/><path d="M371.07,251.25l-25.31-77H250.19l-25.31,77H201.69l82.23-246H312l83.63,246ZM256.51,154.61h82.58l-32-97c-3.51-9.84-6.32-19.33-9.49-29.17-2.81,9.49-6,19.33-9.13,29.17Z"/><path d="M434,251.25V5.27h81.52c46,0,75.55,21.79,75.55,60.79,0,27.76-18.27,48.14-44.28,55.87,31.28,8.09,51,30.93,51,61.85,0,47.79-37.25,67.47-86.09,67.47Zm23.54-138.8h54.82c35.14,0,55.17-17.57,55.17-45,0-24.6-16.87-42.52-53.06-42.52H457.5Zm0,118.77h56.93c40.41,0,59.73-17.22,59.73-48.49,0-29.87-20.38-50.25-62.19-50.25H457.5Z"/><path d="M804.32,25.3H731.58V230.87h72.74v20.38H636V230.87h72.39V25.3H636v-20H804.32Z"/><path d="M852.81,251.25V5.27H888.3l98,218.92V5.27h23.2v246H975.09L875.65,29.17V251.25Z"/></svg>