<svg xmlns="http://www.w3.org/2000/svg" width="1920" height="500" viewBox="0 0 1920 500"><path d="M0,247.67C0,106.18,72.41,7.87,182,7.87c91,0,144.81,65.76,152.12,154.78H287c-9.3-69.09-46.5-116.92-107-116.92-83.7,0-133.52,81.71-133.52,201.94C46.5,369.9,96.32,454.93,178,454.93c65.1,0,102.3-43.84,112.93-116.91h45.83C325.5,432.35,271,492.13,178.7,492.13,68.42,492.13,0,394.48,0,247.67Z"/><path d="M705.33,482.83,657.5,337.35H476.81L429,482.83H385.14l155.44-465h53.15l158.1,465ZM488.77,300.15H644.88L584.43,116.81c-6.65-18.6-12-36.54-17.94-55.14-5.31,17.94-11.29,36.54-17.27,55.14Z"/><path d="M831.92,482.83v-465H986c87,0,142.82,41.19,142.82,114.92,0,52.48-34.55,91-83.7,105.63,59.12,15.27,96.32,58.45,96.32,116.91,0,90.34-70.42,127.54-162.75,127.54Zm44.51-262.39H980.06c66.43,0,104.29-33.22,104.29-85C1084.35,88.91,1052.46,55,984,55H876.43Zm0,224.53H984c76.39,0,112.93-32.55,112.93-91.67,0-56.47-38.53-95-117.58-95h-103Z"/><path d="M1532.07,55.7H1394.56V444.31h137.51v38.52h-318.2V444.31h136.85V55.7H1213.87V17.83h318.2Z"/><path d="M1623.73,482.83v-465h67.09l185.34,413.85V17.83H1920v465h-65.1L1666.91,63V482.83Z"/></svg>