<svg xmlns="http://www.w3.org/2000/svg" width="1920" height="500" viewBox="0 0 1920 500"><path d="M0,482.5V17.5H294.94V54.7H44.51V222.1H283.65V260H44.51V482.5Z"/><path d="M401.34,482.5V17.5H693.63V54.7H445.19V226.75H682.34v37.86H445.19v180H701.6V482.5Z"/><path d="M931.15,482.5,787,17.5h47.16L941.78,373.56c6,19.26,12,39.86,18.6,59.78,5.31-19.92,11.29-39.19,17.93-60.45L1085.93,17.5h45.83L985,482.5Z"/><path d="M1218.84,482.5V17.5h292.29V54.7H1262.69V226.75h237.15v37.86H1262.69v180H1519.1V482.5Z"/><path d="M1604.46,482.5V17.5h170.73c88.35,0,144.81,45.17,144.81,121.56,0,61.12-45.17,100.31-91,112.93,45.84,8,80.38,41.19,80.38,108.28V482.5h-43.84V367.58c0-76.39-37.87-95.66-103-95.66H1648.31V482.5Zm43.85-248.44h118.24c63.77,0,108.28-32.55,108.28-91,0-57.13-39.19-88.35-107.62-88.35h-118.9Z"/></svg>