<svg xmlns="http://www.w3.org/2000/svg" width="5140" height="1440" viewBox="0 0 5140 1440"><path d="M4257,229h298.93c172,0,270.54,78.49,270.54,222.11,0,147-111.89,228.79-272.21,228.79H4257Zm0,1075.48V775.11h287.24c163.66,0,258.85,48.43,258.85,240.48V1304.5h110.22V997.22c0-168.67-86.84-252.17-202.07-272.21C4826.45,693.28,4940,594.75,4940,441.11c0-192-141.95-305.61-364.06-305.61H4146.76v1169Zm-322.3,0v-95.19H3290.06V756.74h596.19V661.55H3290.06V229h624.58V135.5h-734.8v1169Zm-1312.6,0,369.07-1169H2875.92L2605.38,1029c-16.7,53.44-31.73,101.87-45.09,152-16.7-50.1-31.73-101.87-46.76-150.3L2243,135.5H2124.42l362.39,1169Zm-674.67,0v-95.19H1302.79V756.74H1899V661.55H1302.79V229h624.58V135.5h-734.8v1169Zm-1591.49,0V745.05h601.2V649.86H355.92V229H985.51V135.5H244v1169Z"/></svg>