<svg xmlns="http://www.w3.org/2000/svg" width="995.47" height="245.98" viewBox="0 0 995.47 245.98"><path d="M0,246V0H156V19.68H23.54v88.55H150v20H23.54V246Z"/><path d="M206.61,246V0H361.23V19.68H229.8v91H355.25v20H229.8V226H365.44v20Z"/><path d="M478.94,246,402.68,0h24.95l56.93,188.35c3.16,10.19,6.32,21.08,9.84,31.62,2.81-10.54,6-20.73,9.48-32L560.81,0h24.25L507.4,246Z"/><path d="M625.11,246V0H779.72V19.68H648.3v91H773.75v20H648.3V226H783.94v20Z"/><path d="M828.56,246V0h90.31c46.73,0,76.6,23.9,76.6,64.31,0,32.32-23.89,53.06-48.14,59.73,24.25,4.22,42.52,21.79,42.52,57.28V246H966.66V185.19c0-40.42-20-50.61-54.47-50.61H851.75V246Zm23.19-131.43H914.3c33.73,0,57.28-17.21,57.28-48.14,0-30.22-20.74-46.73-56.93-46.73h-62.9Z"/></svg>