<svg xmlns="http://www.w3.org/2000/svg" width="501.08" height="245.98" viewBox="0 0 501.08 245.98"><path d="M477.18,66.41c0-30.22-20.73-46.73-56.92-46.73H357.35v94.87H419.9C453.64,114.55,477.18,97.34,477.18,66.41Z" fill="none"/><path d="M9.49,188C6,199.24,2.81,209.43,0,220H0v26H13L90.66,0H66.42Z"/><polygon points="153.91 130.72 279.35 130.72 279.35 110.69 153.91 110.69 153.91 19.68 285.33 19.68 285.33 0 130.71 0 130.71 245.98 289.54 245.98 289.54 225.95 153.91 225.95 153.91 130.72"/><path d="M452.93,124c24.25-6.67,48.15-27.41,48.15-59.73C501.08,23.9,471.21,0,424.47,0H334.16V246h23.19V134.58H417.8c34.43,0,54.46,10.19,54.46,50.61V246h23.19V181.32C495.45,145.83,477.18,128.26,452.93,124Zm-95.58-9.49V19.68h62.91c36.19,0,56.92,16.51,56.92,46.73,0,30.93-23.54,48.14-57.28,48.14Z"/></svg>